<?xml version="1.0" encoding="UTF-8" standalone="no"?>
<!-- Created with Inkscape (http://www.inkscape.org/) -->

<svg
   width="191.18031mm"
   height="220.75015mm"
   viewBox="0 0 191.18031 220.75015"
   version="1.1"
   id="svg5"
   inkscape:version="1.1.2 (b8e25be833, 2022-02-05)"
   sodipodi:docname="logo.svg"
   xmlns:inkscape="http://www.inkscape.org/namespaces/inkscape"
   xmlns:sodipodi="http://sodipodi.sourceforge.net/DTD/sodipodi-0.dtd"
   xmlns="http://www.w3.org/2000/svg"
   xmlns:svg="http://www.w3.org/2000/svg">
  <sodipodi:namedview
     id="namedview7"
     pagecolor="#ffffff"
     bordercolor="#666666"
     borderopacity="1.0"
     inkscape:pageshadow="2"
     inkscape:pageopacity="0.0"
     inkscape:pagecheckerboard="0"
     inkscape:document-units="mm"
     showgrid="false"
     inkscape:snap-page="true"
     inkscape:snap-object-midpoints="true"
     inkscape:snap-center="true"
     fit-margin-top="0"
     fit-margin-left="0"
     fit-margin-right="0"
     fit-margin-bottom="0"
     inkscape:zoom="0.5"
     inkscape:cx="-51"
     inkscape:cy="545"
     inkscape:window-width="1920"
     inkscape:window-height="991"
     inkscape:window-x="-9"
     inkscape:window-y="-9"
     inkscape:window-maximized="1"
     inkscape:current-layer="layer2" />
  <defs
     id="defs2" />
  <g
     inkscape:label="Layer 1"
     inkscape:groupmode="layer"
     id="layer1"
     transform="translate(-10.059662,-16.873283)"
     style="display:none">
    <path
       style="color:#000000;fill:#808080;stroke-width:1.0415;-inkscape-stroke:none"
       d="m 119.24231,39.18582 v 175.21029 h 13.57031 V 39.18582 Z"
       id="path5777" />
    <path
       style="color:#000000;fill:#808080;stroke-width:1.07385;-inkscape-stroke:none"
       d="M 78.524542,36.339785 V 222.60328 H 92.094854 V 36.339785 Z"
       id="path5777-6" />
    <g
       id="path3730"
       transform="matrix(9.8879512e-5,0.26983539,-0.26983539,9.8879512e-5,189.87405,17.901733)"
       style="stroke:#000000">
      <path
         style="color:#000000;fill:#3d2800;fill-opacity:0;stroke:none;stroke-width:50.2899;-inkscape-stroke:none"
         d="M 595.01985,641.43981 215.00904,641.31804 25.109089,312.15813 215.21996,-16.879999 595.23077,-16.758225 785.13072,312.40168 Z"
         id="path7083" />
      <path
         id="path7085"
         style="color:#000000;fill:#000000;stroke:none;stroke-width:1.01985;-inkscape-stroke:none"
         d="M 428.32812,-47.212891 67.060547,161.38867 l 0.01953,417.16406 12.824219,7.40039 348.462894,201.16602 361.26562,-208.59961 -0.0195,-417.16601 z m 0.002,59.22461 284.47851,164.224611 -233.16992,134.51953 v 59.21289 l 258.68945,-149.24414 0.0117,298.7207 -258.70117,-149.47656 v 59.23437 L 712.57031,563.79102 428.36328,727.89648 143.89062,563.67383 377.06055,429.15039 V 310.73633 L 143.99609,176.1875 Z M 118.35352,220.60742 377.03711,369.94531 118.36523,519.17969 Z"
         transform="matrix(3.5931134e-4,-0.98053594,0.98053594,3.5931134e-4,42.213572,732.15708)" />
    </g>
    <g
       id="path4231">
      <path
         style="color:#000000;fill:#ffffff;stroke-width:13.57;-inkscape-stroke:none"
         d="M 112.43535,113.48561 H 98.865038 v 27.52628 h 13.570312 z"
         id="path6902" />
    </g>
  </g>
  <g
     inkscape:groupmode="layer"
     id="layer2"
     inkscape:label="Layer 2"
     style="display:inline"
     transform="translate(-17.74333,12.491561)">
    <g
       id="path3730-2"
       transform="matrix(9.8879512e-5,0.26983539,-0.26983539,9.8879512e-5,197.55772,-11.463111)"
       style="stroke:#000000" />
    <path
       id="path7435-6"
       style="color:#000000;fill:#000000;stroke:none;stroke-width:3.77953;-inkscape-stroke:none"
       d="M 361.26758 0 L 0 208.59961 L 0.01953125 625.76562 L 12.841797 633.16602 L 361.30664 834.33203 L 722.57031 625.73047 L 722.55273 208.56641 L 361.26758 0 z M 361.26758 29.611328 L 519.67969 121.06055 L 522.95117 121.06055 L 522.95117 122.94922 L 671.40039 208.64648 L 645.74609 223.44727 L 671.26562 238.17969 L 671.26758 267.93359 L 696.91016 253.14062 L 696.92578 581.47656 L 671.2793 566.6582 L 671.28125 596.12305 L 645.50977 611.00391 L 671.14258 625.81641 L 361.30469 804.71875 L 51.177734 625.68555 L 76.828125 610.88477 L 51.306641 596.15234 L 51.304688 566.39258 L 25.662109 581.1875 L 25.646484 253.01367 L 51.292969 267.81836 L 51.291016 238.20898 L 76.935547 223.40234 L 51.289062 208.5957 L 202.42969 121.32617 L 202.42969 121.06055 L 202.88867 121.06055 L 361.26758 29.611328 z M 76.935547 223.40234 L 202.42969 295.84961 L 202.42969 150.94141 L 252.87891 121.81055 L 76.935547 223.40234 z M 252.87891 121.81055 L 252.87891 324.97461 L 361.28516 387.55664 L 361.29492 387.55078 L 361.29688 387.55273 L 472.51172 323.39062 L 472.51172 123.44336 L 522.95117 152.56055 L 361.26953 59.222656 L 252.87891 121.81055 z M 522.95117 152.56055 L 522.95117 294.29102 L 645.74609 223.44727 L 522.95117 152.56055 z M 361.29688 387.55273 L 361.28711 387.55859 L 361.28516 387.55664 L 309.97656 417.1582 L 361.2793 446.77539 L 412.57617 417.18164 L 361.29688 387.55273 z M 412.57617 417.18164 L 472.51172 451.81055 L 472.51172 382.60547 L 522.95117 353.50391 L 412.57617 417.18164 z M 522.95117 353.50391 L 522.95117 480.95508 L 671.2793 566.6582 L 671.26758 267.93359 L 522.95117 353.50391 z M 361.2793 446.77539 L 76.828125 610.88477 L 202.42969 683.39258 L 202.42969 538.42383 L 252.87891 509.31836 L 252.87891 711.59766 L 251.28711 711.59766 L 361.30273 775.10742 L 472.51172 710.89453 L 472.51172 511.04688 L 361.2793 446.77539 z M 309.97656 417.1582 L 252.87891 384.19531 L 252.87891 450.09961 L 309.97656 417.1582 z M 51.292969 267.81836 L 51.304688 566.39258 L 202.42969 479.20508 L 202.42969 355.07227 L 252.41016 383.92383 L 51.292969 267.81836 z M 645.50977 611.00391 L 522.95117 540.18945 L 522.95117 681.76953 L 645.50977 611.00391 z M 696.92773 610.92383 L 696.92773 610.92773 L 696.92383 610.92969 L 696.92773 610.92383 z M 25.664062 610.95312 L 25.667969 610.95898 L 25.664062 610.95703 L 25.664062 610.95312 z M 522.95117 711.38477 L 522.95117 711.59766 L 522.58398 711.59766 L 522.95117 711.38477 z "
       transform="matrix(0.26458333,0,0,0.26458333,17.74333,-12.491561)" />
    <path
       id="path9069"
       style="color:#000000;display:inline;fill:#000000;fill-opacity:0.5;stroke:none;stroke-width:3.77953;-inkscape-stroke:none"
       d="m 269.49023,73.847656 v 0.265625 l 0.46094,-0.265625 z m 317.25,0 3.27149,1.888672 v -1.888672 z m -266.80078,0.75 -50.44922,29.130864 v 144.9082 l 50.44922,29.125 z m 219.63282,1.632813 V 276.17773 l 50.43945,-29.09765 V 105.34766 Z m 50.43945,230.060551 -50.43945,29.10156 v 69.20508 l 50.43945,29.14453 z m -320.52149,1.56836 v 124.13281 l 50.44922,-29.10547 v -65.9043 z m 50.44922,154.24609 -50.44922,29.10547 v 144.9707 l 48.85547,28.20313 h 1.59375 z m 219.63282,1.72851 v 199.84961 l 50.43945,-29.125 V 492.97656 Z m 50.43945,200.3379 -0.36719,0.21289 h 0.36719 z"
       transform="scale(0.26458333)" />
  </g>
</svg>
